
<svg version="1.0" xmlns="http://www.w3.org/2000/svg"
 width="250.000000pt" height="34.000000pt" viewBox="0 0 300.000000 38.000000"
 preserveAspectRatio="xMidYMid meet">
<metadata>
Created by potrace 1.10, written by Peter Selinger 2001-2011
</metadata>
<g transform="translate(0.000000,38.000000) scale(0.100000,-0.100000)"
fill="#f50f0f" stroke="none">
<path d="M198 327 c-86 -47 -85 -44 -80 -162 l3 -71 78 -41 77 -42 74 42 75
43 3 90 c3 102 8 94 -88 147 l-65 36 -77 -42z m151 -16 c54 -32 64 -43 67 -70
2 -17 0 -31 -6 -31 -5 0 -35 16 -67 35 -32 19 -63 35 -68 35 -6 0 -41 -18 -78
-39 l-67 -40 0 34 c0 31 5 37 68 74 37 23 72 41 77 41 6 0 39 -17 74 -39z m42
-110 c19 -11 26 -23 27 -48 1 -18 -1 -33 -5 -33 -3 0 -34 16 -69 35 -34 19
-67 35 -72 35 -16 0 -133 -72 -128 -78 3 -2 33 12 67 32 l63 37 33 -18 33 -18
-32 -16 c-29 -15 -36 -15 -61 -2 -16 8 -31 12 -34 9 -3 -3 10 -13 30 -22 34
-16 37 -16 71 4 36 21 37 21 67 3 l30 -19 -67 -37 -68 -38 -40 22 c-100 52
-106 58 -106 99 0 37 2 39 73 79 l72 42 45 -26 c25 -15 57 -33 71 -42z"/>
<path d="M585 252 c-14 -14 -1 -21 41 -24 50 -3 72 -22 61 -52 -5 -12 -19 -16
-55 -16 l-49 0 2 -37 c3 -42 25 -59 25 -19 0 23 4 26 34 26 36 0 61 17 71 50
8 26 -11 59 -38 64 -42 9 -87 13 -92 8z"/>
<path d="M803 247 c-8 -12 -73 -159 -73 -164 0 -2 6 -3 13 -3 8 0 26 32 42 71
15 39 31 67 35 62 4 -4 17 -34 30 -66 22 -55 36 -75 46 -64 3 3 -9 35 -25 72
-17 37 -31 73 -31 80 0 18 -28 27 -37 12z"/>
<path d="M1136 227 c-7 -18 -23 -56 -36 -85 -21 -49 -22 -71 -3 -59 5 3 20 35
33 71 14 36 27 66 30 66 3 0 18 -32 33 -70 25 -62 47 -90 47 -60 0 22 -65 160
-77 164 -8 3 -18 -8 -27 -27z"/>
<path d="M1334 245 c-4 -9 -4 -43 -1 -76 l7 -59 -40 0 c-29 0 -40 -4 -40 -15
0 -11 12 -15 50 -15 l50 0 0 84 c0 80 -12 118 -26 81z"/>
<path d="M1464 246 c-3 -9 -4 -43 -2 -76 l4 -60 -38 0 c-28 0 -38 -4 -38 -16
0 -12 10 -14 48 -12 l47 3 3 79 c3 77 -10 119 -24 82z"/>
<path d="M1556 173 c-21 -47 -35 -87 -32 -90 10 -11 24 9 46 64 13 32 26 62
30 66 4 4 19 -24 34 -63 17 -44 33 -70 43 -70 8 0 13 6 10 13 -35 84 -72 157
-82 161 -8 3 -26 -27 -49 -81z"/>
<path d="M2251 216 c2 -25 1 -46 -3 -46 -5 0 -24 18 -44 40 -20 22 -45 40 -55
40 -17 0 -19 -8 -19 -85 0 -72 3 -85 16 -85 14 0 16 10 11 70 -3 39 -3 70 0
70 17 0 93 -95 93 -116 0 -14 6 -24 14 -24 20 0 18 171 -3 178 -10 3 -12 -6
-10 -42z"/>
<path d="M2520 240 c0 -13 5 -18 14 -14 8 3 12 12 9 20 -8 21 -23 17 -23 -6z"/>
<path d="M2710 209 l0 -52 -41 47 c-22 25 -49 46 -60 46 -17 0 -19 -8 -19 -86
0 -61 3 -85 12 -82 7 3 11 27 9 71 -1 37 0 67 3 67 16 0 96 -98 96 -118 0 -13
5 -22 11 -20 15 5 15 171 0 176 -7 2 -11 -15 -11 -49z"/>
<path d="M930 165 c0 -68 3 -85 15 -85 11 0 13 8 9 30 -5 23 -3 30 9 30 9 0
18 -8 22 -18 3 -11 17 -24 31 -30 32 -15 34 -15 34 3 0 8 -6 15 -13 15 -7 0
-18 5 -25 12 -9 9 -5 16 18 30 61 37 28 98 -53 98 l-47 0 0 -85z m100 50 c21
-26 4 -45 -40 -45 -38 0 -40 2 -40 30 0 27 3 30 34 30 18 0 39 -7 46 -15z"/>
<path d="M1965 240 c-4 -6 18 -10 59 -10 37 0 66 4 66 10 0 6 -26 10 -59 10
-33 0 -63 -4 -66 -10z"/>
<path d="M2338 220 c-25 -26 -29 -36 -24 -63 17 -86 146 -102 154 -19 2 18 -1
32 -7 32 -6 0 -11 -11 -11 -24 0 -25 -16 -36 -54 -36 -54 0 -76 76 -31 106 24
16 38 15 78 -1 12 -5 17 -3 17 8 0 39 -82 37 -122 -3z"/>
<path d="M2780 241 c0 -5 27 -11 60 -13 43 -2 60 1 60 10 0 8 -19 12 -60 12
-33 0 -60 -4 -60 -9z"/>
<path d="M1715 221 c-4 -7 0 -20 9 -30 20 -22 20 -31 -1 -47 -14 -9 -15 -16
-7 -24 9 -9 16 -6 28 12 l17 23 19 -23 c11 -13 24 -20 30 -17 8 5 4 15 -11 31
l-23 24 23 16 c16 12 20 19 12 27 -7 7 -17 5 -32 -8 -20 -19 -21 -19 -38 4
-13 17 -20 20 -26 12z"/>
<path d="M2520 145 c0 -37 4 -65 10 -65 6 0 10 28 10 65 0 37 -4 65 -10 65 -6
0 -10 -28 -10 -65z"/>
<path d="M1970 165 c0 -11 12 -15 50 -15 38 0 50 4 50 15 0 11 -12 15 -50 15
-38 0 -50 -4 -50 -15z"/>
<path d="M2780 165 c0 -12 13 -15 55 -15 42 0 55 3 55 15 0 12 -13 15 -55 15
-42 0 -55 -3 -55 -15z"/>
<path d="M1965 101 c-9 -15 7 -20 68 -20 43 0 57 4 57 15 0 10 -15 14 -59 14
-33 0 -62 -4 -66 -9z"/>
<path d="M2780 95 c0 -12 13 -15 60 -15 47 0 60 3 60 15 0 12 -13 15 -60 15
-47 0 -60 -3 -60 -15z"/>
</g>
</svg>
